<?xml version="1.0" encoding="UTF-8"?>
<svg xmlns="http://www.w3.org/2000/svg" viewBox="0 0 549.5 549.5" width="16px" height="16px" version="1.1">
  <g transform="scale(5.495)">
    <path stroke="none" fill-rule="nonzero" fill="#2D8EFF" d="M 20,0 h60 A 20,20 45 0 1 100,20  v60 A 20,20 45 0 1 80,100 h-60 A 20,20 45 0 1 0,80 v-60 A 20,20 45 0 1 20,0 z"/>
  </g>
  <path fill="white" d="M 413.5 195.300781 L 346.699219 244.101563 L 346.699219 305.601563 L 413.5 354.300781 C 418.300781 357.898438 423.800781 359.101563 423.800781 349.199219 L 423.800781 200.398438 C 423.800781 195.019531 422.082031 192.507813 419.398438 192.507813 C 417.738281 192.511719 415.714844 193.46875 413.5 195.300781 M 290.800781 192.601563 L 129 192.601563 C 124.398438 192.601563 120.699219 196.300781 120.699219 200.800781 L 120.699219 311.800781 C 120.800781 336.898438 141.300781 357.101563 166.300781 357 L 328.101563 357 C 332.699219 357 336.398438 353.300781 336.398438 348.800781 L 336.398438 237.800781 C 336.300781 212.761719 315.898438 192.601563 290.984375 192.597656 C 290.921875 192.597656 290.863281 192.597656 290.800781 192.601563 " />
</svg>
